ffmpeg started on 2016-11-26 at 22:40:12
Report written to "Output/NVENCh264/results/ffmpeg/sintelll14000k.log"
Command line:
Tools/ffmpeg/ffmpeg -benchmark -y -i Input/y4m/sintel.y4m -c:v h264_nvenc -preset ll -b:v 14000k -an Output/NVENCh264/encoded/sintelll14000k.mkv
ffmpeg version N-82227-gdb23fde Copyright (c) 2000-2016 the FFmpeg developers
  built with gcc 5.4.0 (Ubuntu 5.4.0-6ubuntu1~16.04.2) 20160609
  configuration: --prefix=/home/jaroslav/ffmpeg_build --pkg-config-flags=--static --extra-cflags=-I/home/jaroslav/ffmpeg_build/include --extra-ldflags=-L/home/jaroslav/ffmpeg_build/lib --bindir=/home/jaroslav/bin --enable-gpl --enable-libass --enable-libfdk-aac --enable-libfreetype --enable-libmp3lame --enable-libopus --enable-libtheora --enable-libvorbis --enable-libvpx --enable-libx264 --enable-libx265 --enable-nvenc --enable-libmfx --enable-libxvid --enable-libgsm --enable-libopencore-amrnb --enable-version3 --enable-nonfree
  libavutil      55. 35.100 / 55. 35.100
  libavcodec     57. 66.101 / 57. 66.101
  libavformat    57. 57.100 / 57. 57.100
  libavdevice    57.  2.100 / 57.  2.100
  libavfilter     6. 66.100 /  6. 66.100
  libswscale      4.  3.100 /  4.  3.100
  libswresample   2.  4.100 /  2.  4.100
  libpostproc    54.  2.100 / 54.  2.100
Input #0, yuv4mpegpipe, from 'Input/y4m/sintel.y4m':
  Duration: 00:00:20.83, start: 0.000000, bitrate: 2057307 kb/s
    Stream #0:0: Video: rawvideo (I420 / 0x30323449), yuv420p(progressive), 4096x1744, SAR 1:1 DAR 256:109, 24 fps, 24 tbr, 24 tbn, 24 tbc
[h264_nvenc @ 0x29781c0] The variable bitrate rate-control requires the 'qmin' and/or 'qmax' option set.
Output #0, matroska, to 'Output/NVENCh264/encoded/sintelll14000k.mkv':
  Metadata:
    encoder         : Lavf57.57.100
    Stream #0:0: Video: h264 (h264_nvenc) (Main) (H264 / 0x34363248), yuv420p, 4096x1744 [SAR 1:1 DAR 256:109], q=-1--1, 14000 kb/s, 24 fps, 1k tbn, 24 tbc
    Metadata:
      encoder         : Lavc57.66.101 h264_nvenc
    Side data:
      cpb: bitrate max/min/avg: 0/0/14000000 buffer size: 28000000 vbv_delay: -1
Stream mapping:
  Stream #0:0 -> #0:0 (rawvideo (native) -> h264 (h264_nvenc))
Press [q] to stop, [?] for help
frame=    3 fps=2.4 q=0.0 size=       0kB time=00:00:00.00 bitrate=N/A speed=   0x    frame=   13 fps=7.3 q=0.0 size=       0kB time=00:00:00.00 bitrate=N/A speed=   0x    frame=   27 fps= 11 q=0.0 size=       0kB time=00:00:00.00 bitrate=N/A speed=   0x    frame=   48 fps= 16 q=32.0 size=       1kB time=00:00:00.70 bitrate=   8.4kbits/s speed=0.243x    frame=   69 fps= 20 q=31.0 size=       1kB time=00:00:01.58 bitrate=   3.8kbits/s speed=0.461x    frame=   90 fps= 23 q=31.0 size=       1kB time=00:00:02.45 bitrate=   2.4kbits/s speed=0.623x    frame=  110 fps= 25 q=24.0 size=    5142kB time=00:00:03.29 bitrate=12791.5kbits/s speed=0.74x    frame=  131 fps= 26 q=27.0 size=    5142kB time=00:00:04.16 bitrate=10106.2kbits/s speed=0.84x    frame=  152 fps= 28 q=28.0 size=    8100kB time=00:00:05.04 bitrate=13157.9kbits/s speed=0.92x    frame=  171 fps= 22 q=28.0 size=    8100kB time=00:00:05.83 bitrate=11373.9kbits/s speed=0.763x    frame=  172 fps= 16 q=28.0 size=    8100kB time=00:00:05.87 bitrate=11292.6kbits/s speed=0.543x    frame=  173 fps= 15 q=28.0 size=    8100kB time=00:00:05.91 bitrate=11212.4kbits/s speed=0.522x    frame=  194 fps= 16 q=25.0 size=    8100kB time=00:00:06.79 bitrate=9768.2kbits/s speed=0.573x    frame=  215 fps= 17 q=29.0 size=    8100kB time=00:00:07.66 bitrate=8653.5kbits/s speed=0.618x    frame=  235 fps= 18 q=27.0 size=   13235kB time=00:00:08.50 bitrate=12753.8kbits/s speed=0.658x    frame=  256 fps= 19 q=28.0 size=   13235kB time=00:00:09.37 bitrate=11563.6kbits/s speed=0.698x    frame=  277 fps= 20 q=24.0 size=   13235kB time=00:00:10.25 bitrate=10576.6kbits/s speed=0.735x    frame=  297 fps= 21 q=27.0 size=   18824kB time=00:00:11.08 bitrate=13912.7kbits/s speed=0.767x    frame=  311 fps= 21 q=25.0 size=   18824kB time=00:00:11.66 bitrate=13216.3kbits/s speed=0.773x    frame=  318 fps= 20 q=27.0 size=   18824kB time=00:00:11.95 bitrate=12894.7kbits/s speed=0.766x    frame=  339 fps= 21 q=22.0 size=   18824kB time=00:00:12.83 bitrate=12015.6kbits/s speed=0.796x    frame=  360 fps= 22 q=22.0 size=   18824kB time=00:00:13.70 bitrate=11248.7kbits/s speed=0.824x    frame=  380 fps= 22 q=22.0 size=   23990kB time=00:00:14.54 bitrate=13513.4kbits/s speed=0.849x    frame=  401 fps= 23 q=22.0 size=   23990kB time=00:00:15.41 bitrate=12746.5kbits/s speed=0.874x    frame=  422 fps= 23 q=21.0 size=   23990kB time=00:00:16.29 bitrate=12061.9kbits/s speed=0.897x    frame=  442 fps= 24 q=26.0 size=   29157kB time=00:00:17.12 bitrate=13946.8kbits/s speed=0.917x    frame=  463 fps= 24 q=27.0 size=   29837kB time=00:00:18.00 bitrate=13578.6kbits/s speed=0.938x    frame=  472 fps= 24 q=26.0 size=   29837kB time=00:00:18.37 bitrate=13301.5kbits/s speed=0.933x    frame=  490 fps= 24 q=26.0 size=   29837kB time=00:00:19.12 bitrate=12779.9kbits/s speed=0.936x    frame=  500 fps= 24 q=27.0 Lsize=   35734kB time=00:00:20.79 bitrate=14078.3kbits/s speed=   1x    
video:35729kB audio:0kB subtitle:0kB other streams:0kB global headers:0kB muxing overhead: 0.013800%
bench: utime=0.932s
bench: maxrss=1197480kB
